<svg width="1024" height="959" viewBox="0 0 1024 959" fill="none" xmlns="http://www.w3.org/2000/svg">
<defs>
    <linearGradient id="paint0_linear_1254_20923" x1="686.38" y1="360.087" x2="863.424" y2="288.188" gradientUnits="userSpaceOnUse">
        <stop stop-color="#00011A"/>
        <stop offset="1" stop-color="#373644"/>
    </linearGradient>
</defs>
<path d="M734.622 124.018C736.506 123.713 737.162 124.111 738.737 125.123C739.184 125.864 739.65 126.582 739.814 127.475C740.556 131.602 739.998 137.142 740.011 141.435L739.939 175.393C739.144 177.047 738.508 177.706 737.083 178.708C736.617 178.811 735.987 178.992 735.495 178.952C733.998 178.828 733.197 177.687 732.252 176.558C731.451 174.204 731.478 129 732.291 126.533C732.692 125.321 733.657 124.622 734.622 124.018Z" fill="#8D8FA7"/>
<path d="M775.844 214.061C779.914 213.104 784.752 213.685 788.9 213.701L813.666 213.593C816.752 213.525 819.029 212.996 821.373 215.482C821.648 216.649 822.101 218.126 821.977 219.335C821.845 220.717 820.611 221.811 819.751 222.691C819.193 223.048 818.806 223.188 818.163 223.204L792.117 223.128C787.502 223.11 782.31 223.584 777.748 222.997C776.697 222.861 776.015 222.371 775.273 221.568C773.973 220.157 773.829 219.145 773.98 217.1C774.111 215.44 774.708 214.998 775.844 214.061Z" fill="#8D8FA7"/>
<path d="M797.617 145.012L800.249 145.439C800.932 146.098 801.509 146.587 801.864 147.533C802.402 148.972 802.487 150.188 801.824 151.641C799.947 155.758 794.262 160.679 791.282 164.037L771.262 186.917C768.433 190.174 765.413 194.749 762.295 197.542C761.796 197.992 761.35 198.135 760.753 198.359C760.064 198.379 759.446 198.405 758.784 198.155C757.471 197.661 756.644 196.753 756.119 195.306C755.587 193.83 755.574 192.109 756.217 190.671C756.847 189.244 758.764 187.565 759.775 186.411L769.161 175.717C777.537 166.198 785.65 155.45 794.643 146.689C795.621 145.734 796.356 145.345 797.617 145.012Z" fill="#8D8FA7"/>
<path d="M245.973 150.534L246.475 150.425C247.948 150.291 249.684 151.054 250.545 152.381C251.405 153.707 251.624 155.838 252.044 157.407C252.819 160.3 253.847 162.947 255.498 165.373C257.954 168.981 261.342 171.864 265.25 173.293C267.54 174.13 269.581 173.994 271.409 175.945C272.11 177.6 272.176 178.554 272.049 180.365C270.018 182.949 266.342 183.279 263.583 184.661C258.813 187.051 254.38 192.006 252.668 197.508C251.923 199.905 251.552 202.671 250.6 204.948C249.908 206.604 249.168 206.806 247.75 207.416C243.445 206.987 243.226 201.871 242.015 198.319C241.281 196.167 240.211 193.872 238.969 192.019C236.021 187.623 232.05 185.57 227.56 183.649C226.084 183.017 223.88 182.423 222.712 181.255C221.924 180.467 221.513 179.333 221.579 178.155C221.639 177.09 222.103 175.957 222.861 175.293C224.007 174.291 226.104 173.832 227.499 173.289C230.504 172.12 233.594 170.691 236.098 168.464C238.671 166.174 240.892 162.356 242.111 158.984C243.206 155.954 243.528 152.561 245.973 150.534Z" fill="#EB616C"/>
<path d="M135.77 476.847C139.311 476.322 143.93 476.255 147.331 477.517L147.999 477.784L149.884 478.593C154.499 481.012 157.597 485.054 159.251 490.315C161.311 496.871 161.073 503.514 158.293 509.721C155.314 516.374 151.74 518.706 145.548 521.018C140.061 522.091 133.871 521.948 128.999 518.703C125.561 516.412 122.458 511.977 121.516 507.642C120.063 500.941 119.833 494.544 122.43 488.113C124.909 481.974 130.426 479.107 135.77 476.847Z" fill="#F0EEED"/>
<path d="M746.068 766.32C751.95 766.081 756.098 766.212 761.192 769.969C765.734 773.328 769.141 779.813 770.041 785.733C771.183 793.277 769.909 800.589 765.748 806.791C762.61 811.47 757.772 814.401 752.619 815.257C749.613 815.38 746.626 815.569 743.705 814.633C737.876 812.769 732.921 808.155 730.098 802.156C727.538 796.73 727.577 789.098 729.192 783.346C729.835 781.075 730.42 778.827 731.608 776.81C735.139 770.796 739.852 767.837 746.068 766.32Z" fill="#F0EEED"/>
<path d="M880.285 343.227C885.319 342.898 889.094 343.54 893.498 346.375C898.973 349.898 902.399 355.937 903.915 362.593C905.425 369.202 903.791 376.854 900.568 382.551C897.24 388.428 892.251 391.47 886.33 393.118C881.02 393.619 874.876 392.662 870.419 389.221C865.483 385.409 862.772 379.286 861.774 372.819C860.796 366.487 861.78 358.274 865.246 352.958C869.185 346.926 873.76 344.303 880.285 343.227Z" fill="#E7BBA0"/>
<path d="M220.387 730.024C221.501 729.835 222.952 729.835 224 730.386C227.824 732.41 227.283 741.964 228.567 746.179C230.888 753.788 236.315 759.323 243.413 761.093C246.18 761.782 249.054 761.898 251.63 763.277C252.639 764.546 253.503 765.743 253.793 767.448C253.968 768.478 253.847 770.364 253.316 771.264C250.979 775.217 247.419 774.463 243.723 775.42C235.49 777.546 229.062 784.974 227.647 794.187C227.192 797.146 227.298 802.892 225.735 805.278C224.522 807.128 223.123 807.135 221.25 807.382L219.992 807.157C215.583 805.895 216.034 799.606 215.253 795.623C214.695 792.772 213.992 789.979 212.779 787.382C210.127 781.695 204.814 777.364 199.129 776.066C196.506 775.464 193.536 775.413 191.029 774.426C189.67 773.89 188.765 772.903 188.179 771.43C187.422 769.537 187.641 767.52 188.281 765.62C189.556 761.84 199.885 761.579 203.495 759.78C210.637 756.218 214.359 749.508 215.499 741.05C215.829 738.605 215.782 735.537 216.705 733.281C217.568 731.17 218.567 730.8 220.387 730.024Z" fill="#8D8FA7"/>
<path d="M785.408 315.83C802.881 309.059 819.915 298.56 828.186 279.261C830.916 272.9 832.013 266.614 832.091 259.609L853.851 259.717C854.482 279.513 847.753 297.601 835.551 312.019C827.155 321.936 817.992 328.644 807.036 334.54C802.868 336.784 798.601 339.132 794.171 340.659C783.405 344.688 772.693 348.034 761.475 350.126C744.5 353.294 726.757 353.918 709.572 354.17C700.914 353.193 691.232 354.016 682.482 354.011L684.274 326.998C708.588 327.115 732.619 327.636 756.722 323.499C766.49 321.823 776.146 319.753 785.408 315.83Z" fill="url(#paint0_linear_1254_20923)"/>
<path d="M261.423 628.587L293.652 628.555C296.672 656.861 311.163 686.164 331.443 703.84C344.155 714.919 359.49 722.747 375.563 725.48C383.762 726.873 392.252 726.46 400.524 726.452L443.538 726.423L444.788 728.534C422.715 753.706 412.359 783.913 411.789 818.805C401.487 817.028 390.825 810.71 381.55 805.675C373.584 801.352 365.409 796.985 357.814 791.892C324.372 769.455 294.74 739.981 271.538 705.135L254.752 679.119C251.853 674.152 232.754 636.966 233.573 633.181L233.739 632.57L233.162 631.743L233.203 631.639L261.423 628.587Z" fill="#F0EEED"/>
<path d="M222.403 606.874C222.471 604.731 220.863 601.819 220.164 599.802L216.555 588.066C207.51 557.172 202.336 525.663 200.699 493.255C196.708 414.245 218.829 335.151 259.641 270.436C267.96 257.246 277.269 244.954 286.963 232.998C334.426 174.465 398.978 135.05 469.25 122.928C479.188 121.214 488.949 119.666 499.014 119.094C504.702 118.772 510.456 119.06 516.149 119.151C592.014 120.37 664.327 157.144 719.544 213.708C738.173 232.791 754.662 255.854 768.085 279.628L778.732 300.433C780.413 303.762 785.336 311.061 784.752 314.741L784.561 315.285L785.408 315.829C776.146 319.753 766.49 321.823 756.723 323.499C732.62 327.636 708.588 327.115 684.275 326.997L682.483 354.01C691.233 354.016 700.915 353.193 709.573 354.17C726.758 353.917 744.501 353.294 761.475 350.126C772.694 348.034 783.406 344.688 794.171 340.659C800.939 351.828 804.26 366.171 807.378 379.067C812.675 400.985 816.66 423.142 818.34 445.796C819.187 457.243 819.102 468.788 819.134 480.264C819.2 504.52 817.73 528.655 813.457 552.499C811.31 564.479 809.098 576.895 806.006 588.619C786.432 662.79 744.514 727.999 688.634 774.136C685.056 777.081 681.603 780.432 677.934 783.196C656.877 799.09 633.593 811.676 609.618 821.208C605.914 822.681 602.245 824.581 598.5 825.865C590.059 828.767 581.165 830.646 572.5 832.553C534.709 840.881 495.127 842.093 457.32 833.163L443.736 829.971C440.493 829.217 436.907 828.549 434.007 826.692L418.702 821.462C416.371 820.628 413.902 820.221 411.79 818.807C412.36 783.914 422.716 753.708 444.789 728.536L443.539 726.425L400.525 726.454C392.253 726.461 383.763 726.875 375.564 725.482C359.491 722.749 344.156 714.921 331.444 703.841C311.164 686.166 296.673 656.863 293.653 628.556L261.424 628.589C264.5 627.644 268.576 628.075 271.772 628.072L293.334 628.087C293.991 625.728 293.136 621.323 293.042 618.744L292.948 602.045C269.175 602.07 245.905 602.356 222.403 606.874Z" fill="#F0EEED"/>
<path d="M476.57 481.738C487.637 480.794 499.917 480.37 510.953 481.618C482.016 487.342 457.089 507.447 440.504 533.851C421.839 563.566 416.503 602.542 422.304 637.664C427.88 671.424 447.492 704.703 473.165 724.063C479.251 728.651 485.756 732.641 492.576 735.739C495.755 737.182 499.09 738.06 502.249 739.518C495.007 740.135 487.633 739.438 480.495 738.082C477.653 737.545 474.654 737.262 471.98 736.029C469.51 733.352 463.509 731.647 460.269 729.935L449.401 723.782C447.793 723.24 445.729 721.357 444.248 720.347C421.497 701.713 408.163 673.789 401.597 643.841C399.566 634.579 398.967 624.803 398.726 615.309C397.939 584.405 404.209 556.057 418.859 529.619C432.033 505.844 451.932 488.338 476.57 481.738Z" fill="#31314F"/>
<path d="M298.803 609.044C298.833 602.824 300.083 596.375 301.314 590.29C306.594 564.197 319.171 540.207 338.614 521.453C364.003 496.965 393.455 483.707 429.075 481.33C438.438 480.705 448.085 481.156 457.475 481.175L518.999 481.637C489.454 488.627 465.591 507.166 449.793 532.344C432.226 560.343 424.706 590.364 425.65 623.091C425.94 633.146 426.657 643.499 429.093 653.308C436.967 685.023 452.956 714.595 480.239 734.329C482.015 735.398 484.49 737.393 486.419 737.967L492.5 740L475 740.5L427.807 740.795C417.887 740.803 407.705 741.241 397.874 739.766C378.599 736.871 360.21 728.581 344.966 716.848C320.647 698.129 302.621 657.977 299 628L298.914 626.729C299.027 629.46 298.899 624.188 298.914 626.729L298.803 609.044Z" fill="#8D8FA7"/>
<path d="M475.175 739.106C486.706 740.05 499.501 740.474 511 739.225C480.849 733.499 454.878 713.386 437.598 686.972C418.151 657.246 412.59 618.255 418.635 583.12C424.445 549.347 444.878 516.055 471.627 496.687C477.969 492.097 484.746 488.106 491.852 485.007C495.164 483.563 498.639 482.685 501.931 481.227C494.385 480.61 486.702 481.306 479.265 482.663C476.304 483.2 473.179 483.483 470.393 484.717C467.819 487.395 461.567 489.1 458.191 490.813L446.868 496.968C445.192 497.51 443.041 499.394 441.498 500.404C417.794 519.046 403.901 546.981 397.06 576.94C394.944 586.206 394.32 595.986 394.068 605.484C393.248 636.399 399.782 664.758 415.046 691.206C428.771 714.99 449.505 732.503 475.175 739.106Z" fill="#31314F"/>
<path d="M504.764 205.005L556.701 204.923C567.583 204.913 578.922 204.317 589.75 205.722C614.624 208.949 635.65 222.371 653.125 241.667C669.775 260.048 679.595 285.285 683.021 310.735C683.717 315.902 684.583 321.494 684.334 326.729L684.275 326.996L682.483 354.009C691.233 354.015 700.915 353.192 709.573 354.169L709.002 354.26C700.468 355.561 690.964 354.363 682.286 354.551C674.632 388.402 658.018 418.082 630.508 436.311C617.161 445.158 601.776 450.769 586.235 452.181C577.307 452.992 568.028 452.472 559.065 452.468L518.642 452.494C523.777 448.983 529.238 446.913 534.25 442.857C561.701 420.645 576.216 387.014 581.328 350.538C586.325 314.883 577.385 273.35 557.945 244.35C544.946 224.959 526.925 208.566 504.764 205.005Z" fill="#5D6181"/>
<path d="M511.187 480.287C528.472 478.879 550.892 485.794 565.235 496.354C574.001 502.808 583.111 510.637 590.015 519.494C605.212 538.986 614.401 562.239 618.786 587.378C619.968 594.177 620.125 601.832 620.138 608.753C620.197 636.374 613.41 663.096 599.289 686.073C582.283 713.74 556.723 734.99 526.694 741.178L517.291 742.484C494.676 744.254 472.967 735.28 456.179 718.773C446.011 708.775 438.177 695.66 432.221 682.273C423.918 663.613 418.345 643.686 417.287 622.818C415.236 582.334 424.004 543.456 448.985 512.82C459.267 500.211 474.067 488.57 488.954 483.824C496.178 481.522 503.714 480.751 511.187 480.287Z" fill="#CDD0E0"/>
<path d="M533.187 576.932C529.485 580.662 526.169 583.398 521.038 584.181C516.396 584.89 511.38 583.512 507.68 580.3C503.201 576.413 500.704 570.92 500.141 564.752C499.529 558.052 500.874 552.531 504.789 547.297C507.691 543.416 511.941 540.514 516.544 540.103C523.468 539.485 527.618 541.657 532.765 546.538C536.85 552.713 538.649 558.306 537.517 566.08C536.887 570.401 535.186 573.27 533.187 576.932Z" fill="#080821"/>
<path d="M533.187 673.932C529.485 677.662 526.169 680.398 521.038 681.181C516.396 681.89 511.38 680.512 507.68 677.3C503.201 673.413 500.704 667.92 500.141 661.752C499.529 655.052 500.874 649.531 504.789 644.297C507.691 640.416 511.941 637.514 516.544 637.103C523.468 636.485 527.618 638.657 532.765 643.538C536.85 649.713 538.649 655.306 537.517 663.08C536.887 667.401 535.186 670.27 533.187 673.932Z" fill="#080821"/>
<path d="M468.055 451.511C465.603 452.033 463.322 453.104 460.883 453.672C450.023 456.205 439.503 456.479 428.529 454.488C400.056 449.321 376.458 430.096 359.927 404.557C343.971 379.908 336.606 347.916 338.662 317.727C339.088 311.476 340.376 305.067 341.373 298.89C342.077 294.527 343.542 290.14 344.746 285.913C351.169 263.353 363.305 242.768 379.801 227.574C382.603 224.994 385.946 222.698 388.947 220.384C391.751 218.221 394.992 216.608 398.041 214.894C416.153 204.713 435.004 201.738 454.968 205.76C456.615 204.397 480.144 204.729 482.939 205.038L504.764 205.006C526.925 208.566 544.946 224.96 557.945 244.35C577.385 273.35 586.325 314.883 581.328 350.539C576.216 387.014 561.701 420.645 534.249 442.857C529.238 446.913 523.776 448.983 518.642 452.494L512.636 452.905C510.077 453.4 507.278 453.102 504.674 453.09L491.524 453.074C490.636 453.044 490.048 452.484 489.143 452.455L468.5 452.33L468.055 451.511Z" fill="#CDD0E0"/>
<path d="M407.957 260.567L422.889 260.507C431.07 260.493 438.218 260.038 444.518 266.836C449.491 272.204 451.889 279.39 451.979 287.001C451.994 288.225 451.806 289.389 451.623 290.592C450.645 297.005 448.38 303.511 443.497 307.561C441 309.632 438.567 311.039 435.532 311.896L434.838 312.097C431.814 312.89 428.337 312.597 425.242 312.646L408.494 312.855C410.28 311.431 412.441 310.979 414.322 309.749C419.969 306.057 423.886 299.479 425.409 292.499C426.871 285.794 425.403 278.179 422.157 272.376C419.958 268.445 414.896 262.664 410.677 261.704C409.767 261.497 409.12 261.219 408.286 260.754L407.957 260.567Z" fill="#080821"/>
<path d="M409.986 358.215L428.01 358.008C431.025 358.056 434.393 357.91 437.31 358.828C440.361 359.787 443.377 361.953 445.726 364.294C451.305 369.85 453.315 378.058 453.33 386.063C453.342 392.174 450.193 398.908 446.292 403.114C439.696 410.225 433.257 409.923 424.573 409.834L410.373 409.631L408.896 409.565C410.568 408.62 412.333 408.151 414.004 407.28C417.111 405.66 419.825 402.823 421.88 399.816C425.957 393.848 427.016 386.55 426.133 379.257C425.933 377.609 425.67 376.099 425.14 374.541C422.241 366.019 417.291 361.853 409.986 358.215Z" fill="#080821"/>
<path d="M408.494 312.857L376.176 312.752C369.115 312.648 362.933 311.425 357.841 305.495C353.27 300.173 351.403 292.462 351.653 285.255C351.902 278.064 354.97 270.03 359.892 265.242C361.811 263.375 364.322 261.898 366.782 261.182C372.471 259.527 379.189 260.08 385.026 260.123L407.957 260.568L408.286 260.755C409.12 261.22 409.767 261.498 410.677 261.705C414.896 262.665 419.958 268.447 422.156 272.377C425.403 278.18 426.871 285.796 425.409 292.5C423.886 299.481 419.969 306.058 414.322 309.75C412.441 310.981 410.28 311.433 408.494 312.857Z" fill="#EB616C"/>
<path d="M408.898 409.563L372.888 409.521C366.323 409.165 361.722 407.241 357.297 401.835C351.988 395.347 350.576 388.394 351.103 379.765C351.468 373.775 354.188 367.246 358.387 363.347C361.157 360.775 364.231 358.911 367.784 358.02C373.228 356.656 379.649 357.297 385.222 357.373C393.45 357.484 401.792 357.331 409.987 358.213C417.292 361.851 422.243 366.017 425.141 374.539C425.672 376.097 425.934 377.607 426.134 379.256C427.017 386.548 425.958 393.847 421.882 399.814C419.826 402.821 417.112 405.659 414.005 407.278C412.334 408.149 410.569 408.618 408.898 409.563Z" fill="#EB616C"/>
<path d="M454.969 205.759C456.616 204.396 480.144 204.728 482.939 205.036L504.764 205.004C526.925 208.565 544.947 224.958 557.945 244.349C577.385 273.349 586.326 314.882 581.328 350.537C576.216 387.013 561.701 420.644 534.25 442.856C529.238 446.912 523.777 448.982 518.642 452.493L512.636 452.904C510.078 453.398 507.279 453.101 504.675 453.089L491.525 453.073C490.637 453.043 490.049 452.482 489.143 452.454L468.5 452.329L468.056 451.51C472.186 450.149 476.254 448.175 480 445.816C505.48 429.765 523.586 399.749 530.98 368.713C537.726 340.397 536.358 310.367 527.776 282.737C525.511 275.447 522.91 267.751 519.362 261.104C504.666 233.579 483.244 213.685 454.969 205.759Z" fill="#31314F"/>
<path d="M482.939 205.036L504.764 205.004C526.926 208.564 544.947 224.958 557.945 244.348C577.386 273.348 586.326 314.881 581.329 350.537C576.217 387.012 561.701 420.643 534.25 442.855C529.239 446.911 523.777 448.982 518.643 452.493L512.637 452.903C505.551 451.72 497.555 452.407 490.356 452.328L492.66 451.595C515.187 444.134 534.951 422.462 545.862 399.872C561.594 367.298 566.338 325.984 556.597 290.373C547.794 258.191 531.081 230.601 503.798 214.366C499.381 211.738 494.757 209.505 490.037 207.628C488.05 206.838 485.263 206.585 483.505 205.434L482.939 205.036Z" fill="#5D6181"/>
<path d="M229.694 606.872C253.197 602.353 276.467 602.068 300.24 602.043L300.333 618.742C300.428 621.321 301.282 625.726 300.625 628.085L279.064 628.069C275.867 628.072 271.792 627.641 268.715 628.587L240.496 631.639L240.455 631.742C231.257 632.516 221.69 635.148 212.738 637.61C202.84 640.332 192.677 643.196 183.174 647.313C182.345 646.36 178.649 624.348 178 620.809L229.694 606.872Z" fill="#31314F"/>
</svg>
